#define max_toggled_width 14
#define max_toggled_height 14
static unsigned char max_toggled_bits[] = {
   0x00, 0x00, 0xe0, 0x01, 0xf8, 0x07, 0xfc, 0x0f, 0x0c, 0x0c, 0x0e, 0x1c,
   0xce, 0x1c, 0xce, 0x1c, 0x0e, 0x1c, 0x0c, 0x0c, 0xfc, 0x0f, 0xf8, 0x07,
   0xe0, 0x01, 0x00, 0x00 };
